<?xml version="1.0" encoding="UTF-8"?>
<!DOCTYPE svg PUBLIC "-//W3C//DTD SVG 1.1//EN" "http://www.w3.org/Graphics/SVG/1.1/DTD/svg11.dtd">
<svg xmlns="http://www.w3.org/2000/svg" version="1.1" width="1024px" height="1024px" style="shape-rendering:geometricPrecision; text-rendering:geometricPrecision; image-rendering:optimizeQuality; fill-rule:evenodd; clip-rule:evenodd" xmlns:xlink="http://www.w3.org/1999/xlink">
<g><path style="opacity:1" fill="#f9fafb" d="M -0.5,-0.5 C 340.833,-0.5 682.167,-0.5 1023.5,-0.5C 1023.5,340.833 1023.5,682.167 1023.5,1023.5C 682.167,1023.5 340.833,1023.5 -0.5,1023.5C -0.5,682.167 -0.5,340.833 -0.5,-0.5 Z"/></g>
<g><path style="opacity:1" fill="#0155b0" d="M 372.5,242.5 C 376.674,245.622 381.674,248.455 387.5,251C 399.5,256.333 411.5,261.667 423.5,267C 431.369,267.56 439.036,266.56 446.5,264C 445.552,263.517 444.552,263.351 443.5,263.5C 448.932,261.718 454.599,260.885 460.5,261C 446.667,275.5 432.833,290 419,304.5C 413.464,310.237 409.464,316.904 407,324.5C 406.313,330.204 406.479,335.87 407.5,341.5C 406.402,342.601 406.235,343.934 407,345.5C 416.145,360.007 429.312,365.84 446.5,363C 442.312,362.824 438.312,362.324 434.5,361.5C 446.138,362.565 457.138,360.398 467.5,355C 474.524,350.487 481.191,345.487 487.5,340C 495.869,329.963 505.203,320.963 515.5,313C 518.5,312.333 521.5,312.333 524.5,313C 571.868,349.362 618.368,386.862 664,425.5C 669.593,444.579 662.426,453.745 642.5,453C 640.5,452 638.5,451 636.5,450C 623.167,438.667 609.833,427.333 596.5,416C 593.122,412.985 589.456,410.485 585.5,408.5C 584.923,407.227 584.257,407.227 583.5,408.5C 581.066,412.034 579.233,415.701 578,419.5C 594.311,432.31 610.478,445.31 626.5,458.5C 627.107,458.376 627.44,458.043 627.5,457.5C 632.176,462.561 633.676,468.561 632,475.5C 626.219,487.652 617.053,491.152 604.5,486C 589.978,473.977 575.311,462.144 560.5,450.5C 558.389,453.208 556.389,456.041 554.5,459C 567.963,470.127 581.129,481.627 594,493.5C 599.209,507.248 594.709,516.081 580.5,520C 575.389,521.111 570.722,520.111 566.5,517C 558.759,510.381 550.926,503.881 543,497.5C 541.316,499.351 539.483,501.018 537.5,502.5C 532.221,489.542 522.888,481.209 509.5,477.5C 510.577,454.309 499.577,441.643 476.5,439.5C 475.74,418.071 464.74,405.738 443.5,402.5C 438.205,402.74 433.205,404.074 428.5,406.5C 417.63,384.6 400.964,378.433 378.5,388C 370.333,394.833 362.833,402.333 356,410.5C 336.833,396 317.667,381.5 298.5,367C 295.8,365.143 294.134,362.643 293.5,359.5C 294.249,355.946 295.082,352.28 296,348.5C 302.497,337.006 308.331,325.172 313.5,313C 313.43,312.235 313.097,311.735 312.5,311.5C 313.596,308.968 314.929,306.635 316.5,304.5C 316.81,305.738 317.31,305.738 318,304.5C 327.418,284.497 337.251,264.664 347.5,245C 346.906,244.536 346.239,244.369 345.5,244.5C 350.202,237.943 356.536,235.776 364.5,238C 367.191,239.605 369.858,241.105 372.5,242.5 Z"/></g>
<g><path style="opacity:1" fill="#0056b0" d="M 597.5,260.5 C 598.622,261.947 600.122,262.947 602,263.5C 611.874,259.815 621.707,255.981 631.5,252C 634.109,251.136 635.775,249.97 636.5,248.5C 644.692,244.928 653.026,241.428 661.5,238C 667.877,236.479 673.377,237.979 678,242.5C 695.256,277.347 712.256,312.347 729,347.5C 731.87,357.615 728.703,365.448 719.5,371C 709.301,377.261 699.301,383.761 689.5,390.5C 688.279,389.535 686.946,389.702 685.5,391C 679.5,395 673.5,399 667.5,403C 666.167,403.667 664.833,403.667 663.5,403C 650.022,392.356 636.688,381.523 623.5,370.5C 622.893,370.624 622.56,370.957 622.5,371.5C 612.809,363.47 603.142,355.47 593.5,347.5C 593.938,347.565 594.272,347.399 594.5,347C 579.016,334.094 563.35,321.427 547.5,309C 546.563,308.308 545.897,308.475 545.5,309.5C 531.702,295.379 516.702,293.879 500.5,305C 491.136,314.03 482.136,323.363 473.5,333C 469.805,335.51 466.138,338.01 462.5,340.5C 462.44,339.957 462.107,339.624 461.5,339.5C 451.255,345.156 440.589,346.322 429.5,343C 427.36,342.027 425.693,340.527 424.5,338.5C 423.893,338.624 423.56,338.957 423.5,339.5C 421.029,334.374 420.862,329.041 423,323.5C 433.332,311.336 444.166,299.669 455.5,288.5C 455.435,288.938 455.601,289.272 456,289.5C 468.666,277.27 480.166,264.603 490.5,251.5C 503.831,239.452 519.497,234.952 537.5,238C 558.728,242.462 578.728,249.962 597.5,260.5 Z"/></g>
<g><path style="opacity:1" fill="#0c41a6" d="M 372.5,242.5 C 390.145,250.321 407.812,258.155 425.5,266C 431.467,265.314 437.467,264.481 443.5,263.5C 444.552,263.351 445.552,263.517 446.5,264C 439.036,266.56 431.369,267.56 423.5,267C 411.5,261.667 399.5,256.333 387.5,251C 381.674,248.455 376.674,245.622 372.5,242.5 Z"/></g>
<g><path style="opacity:1" fill="#0f41a7" d="M 636.5,248.5 C 635.775,249.97 634.109,251.136 631.5,252C 621.707,255.981 611.874,259.815 602,263.5C 600.122,262.947 598.622,261.947 597.5,260.5C 599.06,260.519 600.56,260.852 602,261.5C 613.563,257.258 625.063,252.925 636.5,248.5 Z"/></g>
<g><path style="opacity:1" fill="#0b40a6" d="M 490.5,251.5 C 480.166,264.603 468.666,277.27 456,289.5C 455.601,289.272 455.435,288.938 455.5,288.5C 466.829,275.838 478.496,263.505 490.5,251.5 Z"/></g>
<g><path style="opacity:1" fill="#0c41a6" d="M 345.5,244.5 C 346.239,244.369 346.906,244.536 347.5,245C 337.251,264.664 327.418,284.497 318,304.5C 317.31,305.738 316.81,305.738 316.5,304.5C 326.137,284.517 335.804,264.517 345.5,244.5 Z"/></g>
<g><path style="opacity:1" fill="#1042a7" d="M 545.5,309.5 C 545.897,308.475 546.563,308.308 547.5,309C 563.35,321.427 579.016,334.094 594.5,347C 594.272,347.399 593.938,347.565 593.5,347.5C 577.212,335.214 561.212,322.547 545.5,309.5 Z"/></g>
<g><path style="opacity:1" fill="#0b3fa5" d="M 312.5,311.5 C 313.097,311.735 313.43,312.235 313.5,313C 308.331,325.172 302.497,337.006 296,348.5C 295.082,352.28 294.249,355.946 293.5,359.5C 293.21,355.064 293.71,350.73 295,346.5C 301.372,335.09 307.205,323.423 312.5,311.5 Z"/></g>
<g><path style="opacity:1" fill="#083ca3" d="M 462.5,340.5 C 450.821,347.168 438.821,348.001 426.5,343C 425.29,341.961 424.29,340.794 423.5,339.5C 423.56,338.957 423.893,338.624 424.5,338.5C 425.693,340.527 427.36,342.027 429.5,343C 440.589,346.322 451.255,345.156 461.5,339.5C 462.107,339.624 462.44,339.957 462.5,340.5 Z"/></g>
<g><path style="opacity:1" fill="#053da5" d="M 407.5,341.5 C 412.284,353.737 421.284,360.404 434.5,361.5C 438.312,362.324 442.312,362.824 446.5,363C 429.312,365.84 416.145,360.007 407,345.5C 406.235,343.934 406.402,342.601 407.5,341.5 Z"/></g>
<g><path style="opacity:1" fill="#1747a8" d="M 622.5,371.5 C 622.56,370.957 622.893,370.624 623.5,370.5C 636.688,381.523 650.022,392.356 663.5,403C 664.833,403.667 666.167,403.667 667.5,403C 673.5,399 679.5,395 685.5,391C 686.946,389.702 688.279,389.535 689.5,390.5C 681.216,395.611 673.049,400.944 665,406.5C 650.711,394.945 636.544,383.278 622.5,371.5 Z"/></g>
<g><path style="opacity:1" fill="#0354af" d="M 391.5,397.5 C 408.836,397.988 416.002,406.654 413,423.5C 404.209,434.627 395.042,445.46 385.5,456C 373.598,463.368 363.765,461.202 356,449.5C 353.56,442.359 354.56,435.693 359,429.5C 367.038,421.13 374.705,412.464 382,403.5C 385.18,401.338 388.346,399.338 391.5,397.5 Z"/></g>
<g><path style="opacity:1" fill="#0355af" d="M 439.5,417.5 C 452.218,417.391 459.551,423.558 461.5,436C 461.675,439.746 460.842,443.246 459,446.5C 445.506,461.661 431.672,476.494 417.5,491C 404.334,497.159 394.834,493.659 389,480.5C 388.063,475.597 388.73,470.93 391,466.5C 404.095,450.734 417.929,435.568 432.5,421C 434.925,419.787 437.259,418.621 439.5,417.5 Z"/></g>
<g><path style="opacity:1" fill="#1144a8" d="M 585.5,408.5 C 583.165,411.531 581.165,414.865 579.5,418.5C 595.519,431.523 611.519,444.523 627.5,457.5C 627.44,458.043 627.107,458.376 626.5,458.5C 610.478,445.31 594.311,432.31 578,419.5C 579.233,415.701 581.066,412.034 583.5,408.5C 584.257,407.227 584.923,407.227 585.5,408.5 Z"/></g>
<g><path style="opacity:1" fill="#0255b0" d="M 469.5,454.5 C 488.433,452.269 496.267,460.602 493,479.5C 480.952,493.425 468.119,506.592 454.5,519C 444.842,523.524 436.342,522.024 429,514.5C 427.878,512.593 427.045,510.593 426.5,508.5C 427.201,504.273 428.034,499.94 429,495.5C 440.583,483.254 452.083,471.088 463.5,459C 465.888,457.139 468.554,455.806 471.5,455C 470.906,454.536 470.239,454.369 469.5,454.5 Z"/></g>
<g><path style="opacity:1" fill="#0d42a7" d="M 469.5,454.5 C 470.239,454.369 470.906,454.536 471.5,455C 468.554,455.806 465.888,457.139 463.5,459C 452.083,471.088 440.583,483.254 429,495.5C 428.034,499.94 427.201,504.273 426.5,508.5C 424.91,503.641 425.41,498.975 428,494.5C 439.833,482 451.667,469.5 463.5,457C 465.407,455.878 467.407,455.045 469.5,454.5 Z"/></g>
<g><path style="opacity:1" fill="#0354af" d="M 498.5,491.5 C 510.311,490.32 518.144,495.32 522,506.5C 522.589,511.481 521.589,516.148 519,520.5C 512.167,528 505.333,535.5 498.5,543C 488.031,548.618 478.531,547.451 470,539.5C 467.249,534.834 466.249,529.834 467,524.5C 475.317,511.351 485.817,500.351 498.5,491.5 Z"/></g>
<g><path style="opacity:1" fill="#0651ae" d="M 542.5,515.5 C 547.687,518.173 552.187,521.84 556,526.5C 553.318,534.155 547.818,538.988 539.5,541C 533.443,542.162 527.777,541.162 522.5,538C 529.534,530.719 536.201,523.219 542.5,515.5 Z"/></g>
<g><path style="opacity:1" fill="#0355b0" d="M 152.5,624.5 C 147.484,635.447 151.151,643.614 163.5,649C 167.176,650.669 171.009,651.836 175,652.5C 175.765,652.43 176.265,652.097 176.5,651.5C 188.849,653.783 200.516,657.949 211.5,664C 231.182,680.794 233.682,699.96 219,721.5C 209.03,731.734 196.863,737.567 182.5,739C 162.355,741.306 144.022,736.639 127.5,725C 125.649,723.316 123.982,721.483 122.5,719.5C 126.333,713.167 130.167,706.833 134,700.5C 140.548,706.017 147.715,710.35 155.5,713.5C 155.062,713.435 154.728,713.601 154.5,714C 170.192,719.972 184.859,718.139 198.5,708.5C 206.847,695.867 204.18,686.2 190.5,679.5C 189.893,679.624 189.56,679.957 189.5,680.5C 188.508,680.672 187.842,680.338 187.5,679.5C 187.938,679.565 188.272,679.399 188.5,679C 187.328,678.581 186.328,677.915 185.5,677C 172.978,674.297 160.645,670.963 148.5,667C 141.025,663.19 135.191,657.69 131,650.5C 130.31,649.262 129.81,649.262 129.5,650.5C 119.479,625.69 126.479,607.19 150.5,595C 171.566,587.749 191.9,589.416 211.5,600C 214.39,601.938 217.056,604.105 219.5,606.5C 215.417,612.331 211.584,618.331 208,624.5C 198.868,617.177 188.368,613.51 176.5,613.5C 166.634,613.437 158.634,617.104 152.5,624.5 Z"/></g>
<g><path style="opacity:1" fill="#0155b0" d="M 574.5,663.5 C 573.502,687.328 573.169,711.328 573.5,735.5C 565.833,735.5 558.167,735.5 550.5,735.5C 550.667,713.164 550.5,690.831 550,668.5C 548.851,661.191 545.018,655.857 538.5,652.5C 537.893,652.624 537.56,652.957 537.5,653.5C 524.24,651.211 514.073,655.877 507,667.5C 505.531,690.768 505.031,714.101 505.5,737.5C 496.833,737.5 488.167,737.5 479.5,737.5C 479.517,703.041 479.517,668.375 479.5,633.5C 487.167,633.5 494.833,633.5 502.5,633.5C 502.334,637.514 502.501,641.514 503,645.5C 503.499,641.179 503.666,636.846 503.5,632.5C 495.167,632.5 486.833,632.5 478.5,632.5C 486.984,631.507 495.651,631.174 504.5,631.5C 504.334,636.179 504.501,640.845 505,645.5C 521.361,627.864 540.194,624.697 561.5,636C 569.737,643.308 574.071,652.475 574.5,663.5 Z"/></g>
<g><path style="opacity:1" fill="#093fa4" d="M 643.5,629.5 C 632.548,629.657 621.881,631.824 611.5,636C 608.577,638.045 605.743,640.212 603,642.5C 602.601,642.272 602.435,641.938 602.5,641.5C 607.129,636.509 612.796,633.009 619.5,631C 627.447,629.725 635.447,629.225 643.5,629.5 Z"/></g>
<g><path style="opacity:1" fill="#0355b0" d="M 643.5,629.5 C 653.411,630.746 662.411,634.246 670.5,640C 666.592,644.98 663.592,650.48 661.5,656.5C 649.851,647.201 637.184,645.367 623.5,651C 619.673,654.308 618.506,658.474 620,663.5C 621.622,665.906 623.789,667.739 626.5,669C 635.352,672.13 644.352,674.797 653.5,677C 676.101,685.469 682.268,700.636 672,722.5C 669.221,726.631 665.721,729.964 661.5,732.5C 661.44,731.957 661.107,731.624 660.5,731.5C 638.655,740.356 617.322,739.19 596.5,728C 594.5,726.333 592.5,724.667 590.5,723C 591.774,722.023 591.774,721.189 590.5,720.5C 590.932,719.29 591.599,718.29 592.5,717.5C 593.329,718.332 594.162,717.999 595,716.5C 596.413,713.339 598.08,710.339 600,707.5C 612.94,718.444 627.773,722.277 644.5,719C 651.82,716.517 654.487,711.683 652.5,704.5C 650.359,701.528 647.692,699.028 644.5,697C 632.316,693.954 620.316,690.287 608.5,686C 593.901,675.27 590.735,661.77 599,645.5C 599.949,643.907 601.115,642.574 602.5,641.5C 602.435,641.938 602.601,642.272 603,642.5C 605.743,640.212 608.577,638.045 611.5,636C 621.881,631.824 632.548,629.657 643.5,629.5 Z"/></g>
<g><path style="opacity:1" fill="#0655b0" d="M 896.5,713.5 C 895.355,714.793 895.689,715.959 897.5,717C 899.025,718.009 900.692,718.509 902.5,718.5C 902.5,724.5 902.5,730.5 902.5,736.5C 898.828,737.045 899.162,737.378 903.5,737.5C 889.353,741.227 878.353,736.894 870.5,724.5C 858.244,735.419 843.911,740.252 827.5,739C 815.46,735.626 808.293,727.793 806,715.5C 804.013,692.469 814.513,678.969 837.5,675C 848.077,673.03 858.744,671.863 869.5,671.5C 870.87,661.223 866.87,654.223 857.5,650.5C 860.097,650.279 860.097,649.779 857.5,649C 849.445,648.178 841.445,648.512 833.5,650C 832.167,650.667 830.833,651.333 829.5,652C 829.728,652.399 830.062,652.565 830.5,652.5C 827.449,654.352 824.116,655.686 820.5,656.5C 820.218,651.204 819.218,646.037 817.5,641C 817.833,640.167 818.167,639.333 818.5,638.5C 837.997,627.932 857.997,626.766 878.5,635C 886.467,641.319 891.634,649.486 894,659.5C 895.111,677.53 895.944,695.53 896.5,713.5 Z"/></g>
<g><path style="opacity:1" fill="#0255b0" d="M 322.5,733.5 C 322.44,732.957 322.107,732.624 321.5,732.5C 310.4,737.83 298.9,738.83 287,735.5C 286.235,735.57 285.735,735.903 285.5,736.5C 279.085,733.957 273.751,729.957 269.5,724.5C 268.833,723.167 268.167,723.167 267.5,724.5C 266.503,743.659 266.17,762.993 266.5,782.5C 258.5,782.5 250.5,782.5 242.5,782.5C 242.5,732.167 242.5,681.833 242.5,631.5C 250.833,631.5 259.167,631.5 267.5,631.5C 267.176,635.555 267.509,639.555 268.5,643.5C 281.095,630.027 296.428,625.527 314.5,630C 331.261,635.996 341.095,647.829 344,665.5C 346.993,683.865 344.659,701.532 337,718.5C 333.335,724.664 328.502,729.664 322.5,733.5 Z"/></g>
<g><path style="opacity:1" fill="#0355b0" d="M 689.5,667.5 C 689.351,668.552 689.517,669.552 690,670.5C 694.833,649.667 707.667,636.833 728.5,632C 727.552,631.517 726.552,631.351 725.5,631.5C 742.981,627.309 759.314,630.142 774.5,640C 789.589,654.263 795.756,671.763 793,692.5C 789.463,720.037 773.963,735.537 746.5,739C 707.908,739.743 688.241,720.743 687.5,682C 687.405,676.921 688.072,672.088 689.5,667.5 Z"/></g>
<g><path style="opacity:1" fill="#0255b0" d="M 463.5,676.5 C 463.61,691.389 459.943,705.389 452.5,718.5C 452.624,719.107 452.957,719.44 453.5,719.5C 440.367,734.717 423.7,741.217 403.5,739C 383.919,736.565 370.253,726.398 362.5,708.5C 363.097,708.265 363.43,707.765 363.5,707C 357.247,688.634 358.413,670.801 367,653.5C 367.75,652.874 368.584,652.374 369.5,652C 369.347,650.791 369.014,649.625 368.5,648.5C 384.64,631.044 404.307,625.544 427.5,632C 449.211,638.886 461.211,653.719 463.5,676.5 Z"/></g>
<g><path style="opacity:1" fill="#0940a5" d="M 725.5,631.5 C 726.552,631.351 727.552,631.517 728.5,632C 707.667,636.833 694.833,649.667 690,670.5C 689.517,669.552 689.351,668.552 689.5,667.5C 694.5,648.5 706.5,636.5 725.5,631.5 Z"/></g>
<g><path style="opacity:1" fill="#093fa6" d="M 152.5,624.5 C 149.459,635.919 153.459,643.752 164.5,648C 168.429,649.477 172.429,650.644 176.5,651.5C 176.265,652.097 175.765,652.43 175,652.5C 171.009,651.836 167.176,650.669 163.5,649C 151.151,643.614 147.484,635.447 152.5,624.5 Z"/></g>
<g><path style="opacity:1" fill="#0339a2" d="M 857.5,650.5 C 848.326,648.846 839.326,649.512 830.5,652.5C 830.062,652.565 829.728,652.399 829.5,652C 830.833,651.333 832.167,650.667 833.5,650C 841.445,648.512 849.445,648.178 857.5,649C 860.097,649.779 860.097,650.279 857.5,650.5 Z"/></g>
<g><path style="opacity:1" fill="#00399f" d="M 478.5,632.5 C 486.833,632.5 495.167,632.5 503.5,632.5C 503.666,636.846 503.499,641.179 503,645.5C 502.501,641.514 502.334,637.514 502.5,633.5C 494.833,633.5 487.167,633.5 479.5,633.5C 479.517,668.375 479.517,703.041 479.5,737.5C 478.502,702.671 478.168,667.671 478.5,632.5 Z"/></g>
<g><path style="opacity:1" fill="#f6f8fa" d="M 317.5,668.5 C 318.606,676.785 318.773,685.118 318,693.5C 315.165,710.842 304.999,718.342 287.5,716C 279.342,713.834 272.842,709.334 268,702.5C 267.5,689.838 267.333,677.171 267.5,664.5C 278.968,651.05 292.635,648.216 308.5,656C 312.391,659.651 315.391,663.818 317.5,668.5 Z"/></g>
<g><path style="opacity:1" fill="#f7f9fa" d="M 421.5,714.5 C 406.934,718.982 395.6,714.982 387.5,702.5C 384.554,693.095 383.721,683.428 385,673.5C 391.453,654.358 404.287,648.191 423.5,655C 433.201,661.735 437.868,671.068 437.5,683C 437.867,693.226 434.867,702.226 428.5,710C 426.102,711.524 423.769,713.024 421.5,714.5 Z"/></g>
<g><path style="opacity:1" fill="#f8f9fb" d="M 733.5,652.5 C 750.135,650.001 760.968,656.668 766,672.5C 766.667,680.167 766.667,687.833 766,695.5C 760.607,712.454 749.107,718.954 731.5,715C 722.295,711.13 716.795,704.297 715,694.5C 710.136,675.254 716.303,661.254 733.5,652.5 Z"/></g>
<g><path style="opacity:1" fill="#1446a9" d="M 187.5,679.5 C 175.432,676.649 163.432,673.483 151.5,670C 141.403,666.477 134.07,659.977 129.5,650.5C 129.81,649.262 130.31,649.262 131,650.5C 135.191,657.69 141.025,663.19 148.5,667C 160.645,670.963 172.978,674.297 185.5,677C 186.328,677.915 187.328,678.581 188.5,679C 188.272,679.399 187.938,679.565 187.5,679.5 Z"/></g>
<g><path style="opacity:1" fill="#0a43a8" d="M 189.5,680.5 C 189.56,679.957 189.893,679.624 190.5,679.5C 204.18,686.2 206.847,695.867 198.5,708.5C 184.859,718.139 170.192,719.972 154.5,714C 154.728,713.601 155.062,713.435 155.5,713.5C 168.964,717.1 181.964,715.933 194.5,710C 200.652,704.878 202.818,698.378 201,690.5C 198.232,685.896 194.399,682.562 189.5,680.5 Z"/></g>
<g><path style="opacity:1" fill="#2e53ad" d="M 537.5,653.5 C 537.56,652.957 537.893,652.624 538.5,652.5C 545.018,655.857 548.851,661.191 550,668.5C 550.5,690.831 550.667,713.164 550.5,735.5C 558.167,735.5 565.833,735.5 573.5,735.5C 573.169,711.328 573.502,687.328 574.5,663.5C 575.481,688.122 575.814,712.789 575.5,737.5C 566.5,737.5 557.5,737.5 548.5,737.5C 548.667,713.498 548.5,689.498 548,665.5C 546.066,660.07 542.566,656.07 537.5,653.5 Z"/></g>
<g><path style="opacity:1" fill="#f6f8fa" d="M 869.5,703.5 C 861.247,714.533 850.247,719.033 836.5,717C 833.614,715.615 831.614,713.449 830.5,710.5C 828.032,703.727 829.698,698.227 835.5,694C 846.255,688.978 857.589,686.478 869.5,686.5C 869.5,692.167 869.5,697.833 869.5,703.5 Z"/></g>
<g><path style="opacity:1" fill="#0a3da5" d="M 463.5,676.5 C 465.031,692.04 461.697,706.373 453.5,719.5C 452.957,719.44 452.624,719.107 452.5,718.5C 459.943,705.389 463.61,691.389 463.5,676.5 Z"/></g>
<g><path style="opacity:1" fill="#1f4aab" d="M 368.5,648.5 C 369.014,649.625 369.347,650.791 369.5,652C 368.584,652.374 367.75,652.874 367,653.5C 358.413,670.801 357.247,688.634 363.5,707C 363.43,707.765 363.097,708.265 362.5,708.5C 354.188,687.371 356.188,667.371 368.5,648.5 Z"/></g>
<g><path style="opacity:1" fill="#1d48aa" d="M 387.5,702.5 C 395.6,714.982 406.934,718.982 421.5,714.5C 421.938,714.435 422.272,714.601 422.5,715C 407.315,720.882 395.315,717.049 386.5,703.5C 386.624,702.893 386.957,702.56 387.5,702.5 Z"/></g>
<g><path style="opacity:1" fill="#0b44a7" d="M 652.5,704.5 C 654.487,711.683 651.82,716.517 644.5,719C 627.773,722.277 612.94,718.444 600,707.5C 598.08,710.339 596.413,713.339 595,716.5C 594.162,717.999 593.329,718.332 592.5,717.5C 594.806,713.517 597.139,709.517 599.5,705.5C 613.578,717.853 629.578,721.353 647.5,716C 651.198,713.081 652.864,709.247 652.5,704.5 Z"/></g>
<g><path style="opacity:1" fill="#1542a7" d="M 267.5,664.5 C 267.333,677.171 267.5,689.838 268,702.5C 272.842,709.334 279.342,713.834 287.5,716C 304.999,718.342 315.165,710.842 318,693.5C 318.773,685.118 318.606,676.785 317.5,668.5C 319.127,669.445 319.96,671.445 320,674.5C 321.751,686.07 320.084,697.07 315,707.5C 307.234,716.787 297.401,719.953 285.5,717C 277.784,714.565 271.617,710.065 267,703.5C 266.177,689.757 266.343,676.757 267.5,664.5 Z"/></g>
<g><path style="opacity:1" fill="#1447a9" d="M 869.5,703.5 C 870.525,703.897 870.692,704.563 870,705.5C 860.665,716.924 848.832,721.09 834.5,718C 832.259,716.261 830.592,714.094 829.5,711.5C 829.624,710.893 829.957,710.56 830.5,710.5C 831.614,713.449 833.614,715.615 836.5,717C 850.247,719.033 861.247,714.533 869.5,703.5 Z"/></g>
<g><path style="opacity:1" fill="#01329f" d="M 896.5,713.5 C 898.052,716.112 900.386,717.445 903.5,717.5C 903.5,724.167 903.5,730.833 903.5,737.5C 899.162,737.378 898.828,737.045 902.5,736.5C 902.5,730.5 902.5,724.5 902.5,718.5C 900.692,718.509 899.025,718.009 897.5,717C 895.689,715.959 895.355,714.793 896.5,713.5 Z"/></g>
<g><path style="opacity:1" fill="#1447a8" d="M 590.5,720.5 C 591.774,721.189 591.774,722.023 590.5,723C 592.5,724.667 594.5,726.333 596.5,728C 617.322,739.19 638.655,740.356 660.5,731.5C 661.107,731.624 661.44,731.957 661.5,732.5C 636.104,743.839 612.271,741.173 590,724.5C 589.421,723.072 589.588,721.738 590.5,720.5 Z"/></g>
<g><path style="opacity:1" fill="#0b40a6" d="M 322.5,733.5 C 310.574,739.978 298.24,740.978 285.5,736.5C 285.735,735.903 286.235,735.57 287,735.5C 298.9,738.83 310.4,737.83 321.5,732.5C 322.107,732.624 322.44,732.957 322.5,733.5 Z"/></g>
<g><path style="opacity:1" fill="#002499" d="M 242.5,631.5 C 242.5,681.833 242.5,732.167 242.5,782.5C 250.5,782.5 258.5,782.5 266.5,782.5C 266.17,762.993 266.503,743.659 267.5,724.5C 267.5,744.167 267.5,763.833 267.5,783.5C 258.833,783.5 250.167,783.5 241.5,783.5C 241.168,732.664 241.501,681.997 242.5,631.5 Z"/></g>
<g><path style="opacity:1" fill="#93b6de" d="M 269.5,724.5 C 268.503,744.326 268.17,764.326 268.5,784.5C 259.318,784.827 250.318,784.493 241.5,783.5C 250.167,783.5 258.833,783.5 267.5,783.5C 267.5,763.833 267.5,744.167 267.5,724.5C 268.167,723.167 268.833,723.167 269.5,724.5 Z"/></g>
</svg>
